<svg width="36" height="36" viewBox="0 0 36 36" fill="none" xmlns="http://www.w3.org/2000/svg">
<path fill-rule="evenodd" clip-rule="evenodd" d="M7.43522 1.46559C7.93823 0.84283 8.62697 0.42016 9.38116 0.243187C9.82443 0.0857188 10.3017 0 10.799 0H27.7655C30.1041 0 32 1.89587 32 4.23455V8.2C32 8.41941 31.9833 8.63493 31.9511 8.84534L31.9678 8.84025V9.05179C31.9678 11.2754 30.1653 13.0779 27.9417 13.0779C27.1716 13.0779 26.5474 13.7022 26.5474 14.4722V24.1062C26.5474 25.0665 26.2041 25.9952 25.5796 26.7247L23.0155 29.7194C22.9647 29.7831 22.9127 29.8458 22.8595 29.9076C22.0592 30.8362 21.0782 31.3075 20.0501 31.3075H11.2032C10.1751 31.3075 9.194 30.8362 8.39377 29.9076C7.56652 28.9477 7.43522 27.7467 7.43522 26.8077V25.1558C7.43522 23.3583 5.97807 21.9012 4.18058 21.9012C3.3174 21.9012 2.48957 21.5583 1.8792 20.9479L1.03701 20.1057C0.373025 19.4417 0 18.5412 0 17.6021V12.4011C0 11.5915 0.27749 10.8063 0.786218 10.1765C1.29495 9.54661 7.43522 1.46559 7.43522 1.46559ZM9.38275 4.23455C9.38275 3.45238 10.0168 2.81831 10.799 2.81831H27.7655C28.5476 2.81831 29.1817 3.45238 29.1817 4.23455V8.2C29.1817 8.98216 28.5476 9.61623 27.7655 9.61623H24.0833C23.3011 9.61623 22.667 10.2503 22.667 11.0325V21.2293C22.667 22.0115 22.033 22.6456 21.2508 22.6456H17.3137C16.5315 22.6456 15.8974 22.0115 15.8974 21.2293V11.0325C15.8974 10.2503 15.2634 9.61623 14.4812 9.61623H10.799C10.0168 9.61623 9.38275 8.98217 9.38275 8.2V4.23455Z" fill="#EE117D"/>
</svg>
